<svg class="logo_text-svg" fill="none" version="1.1" viewBox="0 0 144 35" xmlns="http://www.w3.org/2000/svg">
    <path d="m58.576 11.875c-0.8892-0.5568-1.9523-0.8352-3.1894-0.8352-1.3338 0-2.5274 0.3312-3.5809 0.9936-1.0534 0.6624-1.8846 1.6128-2.4935 2.8512-0.6089 1.2384-0.9133 2.7024-0.9133 4.392 0 1.6704 0.3044 3.1296 0.9133 4.3776s1.4401 2.2032 2.4935 2.8656c1.0535 0.6624 2.2471 0.9936 3.5809 0.9936 1.2371 0 2.3002-0.2784 3.1894-0.8352 0.8891-0.5568 1.5367-1.3152 1.9426-2.2752v2.9088h4.9581v-21.312h-4.9581v8.1504c-0.4059-0.96-1.0535-1.7184-1.9426-2.2752zm-53.466 15.437v-7.1424h3.0734c1.6044 0 2.9671-0.2832 4.0882-0.8496s1.9668-1.344 2.537-2.3328c0.5703-0.9888 0.8554-2.1168 0.8554-3.384 0-2.0352-0.6379-3.6528-1.9137-4.8528-1.2757-1.2-3.1314-1.8-5.5669-1.8h-8.0315v20.362zm5.509-13.709c0 1.7472-0.99546 2.6208-2.9864 2.6208h-2.5225v-5.2992h2.5225c1.991 0 2.9864 0.89279 2.9864 2.6784zm12.439 0.6624c0.6186-0.9792 1.4159-1.7568 2.3921-2.3328 0.9761-0.576 2.0344-0.864 3.1749-0.864v5.2704h-1.4208c-1.3144 0-2.334 0.2784-3.0589 0.8352s-1.0873 1.4976-1.0873 2.8224v7.3152h-4.9581v-16.07h4.9581zm19.528-2.232c-1.2661-0.6624-2.7014-0.9936-4.3057-0.9936-1.6044 0-3.0445 0.3312-4.3202 0.9936-1.2758 0.6624-2.2761 1.6176-3.001 2.8656-0.7248 1.248-1.0873 2.7072-1.0873 4.3776s0.3625 3.1296 1.0873 4.3776c0.7249 1.248 1.7252 2.2032 3.001 2.8656 1.2757 0.6624 2.7158 0.9936 4.3202 0.9936 1.6043 0 3.0396-0.3312 4.3057-0.9936s2.2615-1.6176 2.9864-2.8656 1.0873-2.7072 1.0873-4.3776-0.3624-3.1296-1.0873-4.3776c-0.7249-1.248-1.7203-2.2032-2.9864-2.8656zm-4.3057 3.2688c-0.9472 0-1.7445 0.3408-2.3921 1.0224-0.6475 0.6816-0.9713 1.6656-0.9713 2.952s0.3238 2.2656 0.9713 2.9376c0.6476 0.672 1.4449 1.008 2.3921 1.008 0.9471 0 1.7396-0.336 2.3775-1.008s0.9568-1.6512 0.9568-2.9376-0.3189-2.2704-0.9568-2.952-1.4304-1.0224-2.3775-1.0224zm18.702 0.0576c-1.0632 0-1.9185 0.3456-2.5661 1.0368-0.6475 0.6912-0.9713 1.6512-0.9713 2.88s0.3238 2.1888 0.9713 2.88c0.6476 0.6912 1.5029 1.0368 2.5661 1.0368 1.0438 0 1.8991-0.3552 2.566-1.0656s1.0003-1.6608 1.0003-2.8512c0-1.2096-0.3334-2.1648-1.0003-2.8656s-1.5222-1.0512-2.566-1.0512zm23.022 11.952h4.9871v-16.07h-4.9871v8.5248c0 1.1712-0.29 2.0736-0.8699 2.7072s-1.3724 0.9504-2.3775 0.9504c-0.9665 0-1.7349-0.3024-2.3051-0.9072s-0.8553-1.4544-0.8553-2.5488v-8.7264h-4.9291v9.3312c0 2.1504 0.5461 3.84 1.6382 5.0688s2.566 1.8432 4.4217 1.8432c1.2177 0 2.2857-0.2784 3.2039-0.8352 0.9181-0.5568 1.6092-1.3056 2.0731-2.2464zm15.715-16.272c2.0876 0 3.8369 0.57119 5.2484 1.7136 1.411 1.1424 2.3 2.712 2.667 4.7088h-5.2479c-0.1547-0.6912-0.4736-1.2288-0.9569-1.6128-0.4832-0.384-1.0921-0.576-1.8266-0.576-0.8699 0-1.5851 0.3408-2.1456 1.0224-0.5606 0.6816-0.8409 1.6752-0.8409 2.9808s0.2803 2.2992 0.8409 2.9808c0.5605 0.6816 1.2757 1.0224 2.1456 1.0224 0.7345 0 1.3434-0.192 1.8266-0.576 0.4833-0.384 0.8022-0.9216 0.9569-1.6128h5.2479c-0.367 1.9968-1.256 3.5664-2.667 4.7088-1.4115 1.1424-3.1608 1.7136-5.2484 1.7136-1.5851 0-2.9913-0.3312-4.2188-0.9936-1.2274-0.6624-2.1891-1.6176-2.8849-2.8656-0.6959-1.248-1.0438-2.7072-1.0438-4.3776 0-1.6896 0.3431-3.1536 1.0293-4.392 0.6862-1.2384 1.6478-2.1888 2.8849-2.8512 1.2372-0.6624 2.6482-0.9936 4.2333-0.9936zm19.658 16.272v-4.2336h-1.566c-0.618 0-1.058-0.1248-1.319-0.3744s-0.392-0.6912-0.392-1.3248v-5.9904h3.248v-4.1472h-3.248v-3.9456h-4.958v3.9456h-2.174v4.1472h2.174v5.904c0 2.1504 0.527 3.6912 1.581 4.6224 1.053 0.9312 2.527 1.3968 4.421 1.3968zm7.741-21.312v21.312h-4.958v-21.312zm11.047 15.091-3.885-9.8496h-5.538l6.785 15.466-3.798 8.2656h5.451l10.09-23.731h-5.48z" clip-rule="evenodd" fill="#173a56" fill-rule="evenodd"/>
</svg>
