<svg width="30" height="23.36" version="1.1" viewBox="0 0 7.9375 6.1807" xmlns="http://www.w3.org/2000/svg">
 <g transform="translate(11.555 -68.991)">
  <path id="hamburger" d="m-11.119 68.991a0.42325 0.42325 0 1 0 0 0.8465h7.0417a0.42325 0.42325 0 1 0 0-0.8465zm7.0882 2.6674a0.42287 0.42287 0 0 0-0.046249 0.001651h-7.0417a0.42287 0.42287 0 0 0-0.043771 0 0.42287 0.42287 0 0 0 0.043771 0.84235h7.0417a0.42287 0.42287 0 1 0 0.046249-0.844zm-7.1301 2.6666a0.42287 0.42287 0 0 0-0.001654 8.26e-4 0.4235 0.4235 0 0 0 0.043772 0.84565h7.0417a0.42291 0.42291 0 1 0 0-0.84565h-7.0417a0.42287 0.42287 0 0 0-0.042118-8.26e-4z" color="#000000" color-rendering="auto" dominant-baseline="auto" fill="#000" image-rendering="auto" shape-rendering="auto" solid-color="#000000" stroke-width=".26458" style="font-feature-settings:normal;font-variant-alternates:normal;font-variant-caps:normal;font-variant-ligatures:normal;font-variant-numeric:normal;font-variant-position:normal;isolation:auto;mix-blend-mode:normal;paint-order:normal;shape-padding:0;text-decoration-color:#000000;text-decoration-line:none;text-decoration-style:solid;text-indent:0;text-orientation:mixed;text-transform:none;white-space:normal"/>
 </g>
</svg>
